<svg xmlns="http://www.w3.org/2000/svg" viewBox="0 0 200 260" width="200" height="260" role="img" aria-label="Capsule bottle — artwork in production">
<defs>
<filter id="soft" x="-40%" y="-40%" width="180%" height="180%"><feGaussianBlur stdDeviation="6"/></filter>
</defs>
<ellipse cx="100" cy="242" rx="44" ry="7" fill="#000" opacity="0.25" filter="url(#soft)"/>
<g fill="none" stroke="#8A8B90" stroke-width="1.6">
  <!-- cap -->
  <rect x="74" y="42" width="52" height="20" rx="6" stroke-dasharray="5 4"/>
  <line x1="74" y1="62" x2="126" y2="62"/>
  <!-- bottle body -->
  <path d="M70 78 q0 -10 10 -10 h40 q10 0 10 10 v136 q0 14 -14 14 h-32 q-14 0 -14 -14 Z" stroke-dasharray="5 4"/>
  <!-- label band -->
  <line x1="70" y1="122" x2="130" y2="122" stroke-dasharray="3 4"/>
  <line x1="70" y1="182" x2="130" y2="182" stroke-dasharray="3 4"/>
</g>
<!-- capsules -->
<g stroke="#D8F231" stroke-width="1.6" fill="none" opacity="0.85">
  <g transform="rotate(24 92 152)">
    <rect x="80" y="144" width="34" height="15" rx="7.5"/>
    <line x1="97" y1="144" x2="97" y2="159"/>
  </g>
  <g transform="rotate(-18 110 170)">
    <rect x="92" y="162" width="34" height="15" rx="7.5"/>
    <line x1="109" y1="162" x2="109" y2="177"/>
  </g>
</g>
<!-- F glyph watermark -->
<g transform="translate(90 90) scale(0.13)" opacity="0.55"><path d="M34 11 Q34 0 45 0 H115 Q119.2 0.2 116.8 3.3 L95.1 22.9 Q86 32 73 32 H34 Z M11 32 H34 V45 Q34 52 29.1 56.9 L2.4 83.6 Q-1.35 86.35 0 81.8 V43 Q0 32 11 32 Z M34 77 Q34 66 45 66 H115 Q119.2 66.2 116.8 69.3 L95.1 88.9 Q86 98 73 98 H34 Z M11 102 H34 V130 Q34 137 29.1 141.9 L2.4 168.6 Q-1.35 171.35 0 166.8 V113 Q0 102 11 102 Z" fill="#8A8B90"/></g>
</svg>
